<?xml version="1.0" encoding="utf-8"?>
<!-- Generator: Adobe Illustrator 19.0.0, SVG Export Plug-In . SVG Version: 6.00 Build 0)  -->
<svg version="1.1"
	 id="svg4256" xmlns:cc="http://creativecommons.org/ns#" xmlns:dc="http://purl.org/dc/elements/1.1/" xmlns:rdf="http://www.w3.org/1999/02/22-rdf-syntax-ns#" xmlns:svg="http://www.w3.org/2000/svg"
	 xmlns="http://www.w3.org/2000/svg" xmlns:xlink="http://www.w3.org/1999/xlink" x="0px" y="0px" viewBox="237 -19.7 500 89.7"
	 style="enable-background:new 237 -19.7 500 89.7;" xml:space="preserve">
<style type="text/css">
	.st0{fill:#FFFFFF;}
</style>
<path id="path4258" class="st0" d="M415.4,69c-18,0-34.8-5.4-46-15.4c-8.4-7.6-12.5-17.9-12.5-28.5c0-10.5,4.2-20.8,12.5-28.4
	c10.4-9.5,28.7-15.4,46-15.4c19.1,0,34.4,4.8,46.1,15.4c8.3,7.5,12.3,17.9,12.3,28.4c0,10.2-4.3,21-12.3,28.5
	C450.6,63.7,433.5,69,415.4,69V57.4c9.6,0,18.5-3.3,24.7-9.5c6.2-6.1,9-13.7,9-22.9c0-8.8-3.1-17.1-9-22.9c-6.1-6-15.2-9.4-24.7-9.4
	c-9.5,0-18.6,3.4-24.7,9.4c-5.9,5.8-9,14.1-9,22.9c0,8.8,3.1,17,9,22.9c6.1,6.1,15.2,9.5,24.7,9.5V69L415.4,69z M283.6-18.6
	c-9.7,0-20.6,1.8-29.9,6C245-8.8,238-2.6,238,7.7c0,9.3,5.9,14.7,5.7,14.5c2.5,2.3,6.5,6.2,17.1,8.5c4.7,1,14.8,2.6,24.8,3.7
	c10,1,19.7,2,23.7,3.1c3.2,0.8,8.5,1.9,8.5,7.9c0,5.9-5.6,7.8-6.6,8.2c-1,0.4-7.7,3.5-19.8,3.5c-8.9,0-19.7-2.7-23.6-4.1
	c-4.5-1.6-9.2-3.7-13.7-9.1c-1.1-1.3-2.8-5-2.8-8.7h-10.9v30.7h12.2v-4.1c0-0.5,0.6-2.4,2.6-1.5c2.5,1.2,10,4.1,17.8,5.8
	c6.4,1.3,10.5,2.3,18.5,2.3c13,0,19.9-2.1,24.8-3.5c4.5-1.3,10.1-3.6,14.7-7.3c2.5-2,7.9-7,7.9-16.1c0-8.8-4.7-14.2-6.4-15.9
	c-2.3-2.3-5-4-7.9-5.4c-2.5-1.2-6.5-2.6-9.7-3.4c-6.3-1.5-20.5-3.4-27.2-4.2c-7.1-0.7-19.5-1.8-24.4-3.3c-1.5-0.5-4.5-1.9-4.5-5.5
	c0-2.5,1.4-4.6,4.1-6.4c4.4-2.7,13.2-4.4,22.4-4.4c10.9,0,20.1,2.4,26,5.1c2,0.9,4.3,2.2,6.2,3.7c2.1,1.7,5,5.2,6.1,10.2h9.8v-26.7
	h-11v3.1c0,1-1,2.3-3,1.2C314.5-13.1,300.6-18.6,283.6-18.6 M524.1-13.8l53.5,48.3L577.1,2c-0.1-4.3-0.8-6-5.5-6h-10.1v-9.7h45.8V-4
	h-9.8c-4.7,0-5,1.5-5.1,6l0.8,62.2h-15.7l-61.7-55l0,39.1c0.1,4.2,0.3,6.2,4.6,6.2h11v9.7h-45v-9.7h10.5c3.9,0,3.8-3.7,3.8-6.5V2.4
	c0-2.9-0.4-6.4-6.6-6.4h-8.5v-9.7H524.1z M659.7,54.4c0.4,0,2.3-0.1,2.7-0.2c1.1-0.3,1.8-1.1,2.1-1.9c0.1-0.3,0.2-1.8,0.2-2.1
	l0-15.4c0-0.4,0-0.5-0.7-1.4c-0.7-0.9-28-31.9-29.3-33.3c-1.6-1.7-4.3-4.3-8.4-4.3h-9.5v-9.7h53.7v9.7H664c-1.5,0-2.5,1.4-1.2,3
	c0,0,18.1,21.6,18.2,21.8c0.2,0.2,0.3,0.3,0.5,0.1c0.2-0.2,18.5-21.7,18.7-21.9c0.9-1,0.3-3-1.6-3H692v-9.7h44V-4h-9.8
	c-3.6,0-5,0.7-7.7,3.7c-1.2,1.4-28.9,32.9-29.6,33.8c-0.4,0.4-0.4,1.1-0.4,1.4v15.4c0,0.3,0.1,1.8,0.2,2.1c0.3,0.8,1.1,1.5,2.1,1.9
	c0.4,0.1,2.3,0.2,2.7,0.2h10.1v9.7h-53.4v-9.7L659.7,54.4L659.7,54.4z"/>
</svg>
