<?xml version="1.0" encoding="utf-8"?>
<!-- Generator: Adobe Illustrator 19.0.0, SVG Export Plug-In . SVG Version: 6.00 Build 0)  -->
<svg version="1.1" id="Camada_1" xmlns="http://www.w3.org/2000/svg" xmlns:xlink="http://www.w3.org/1999/xlink" x="0px" y="0px"
	 viewBox="0 0 130 118" style="enable-background:new 0 0 130 118;" xml:space="preserve">
<style type="text/css">
	.st0{fill:#0D0F0F;}
	.st1{fill:#0D0F10;}
</style>
<g id="XMLID_1_">
	<path id="XMLID_111_" class="st0" d="M30.6,45.6c0.4,0.8,0.8,1.6,1.2,2.3c0.7,1.3,1,2.5,3.3,1.8c2.1-0.7,4.2,1,5.8,2.5
		c0.9,0.8,1.8,1.2,3,1c1.7-0.3,1.7-0.3,1.9,1.5c1-0.1,1-1.4,2.2-1.4c-0.2,1.5-2.1,3-0.3,4.4c1.3,1,3-0.5,4.6,0.1
		c0,0.4-0.1,0.8,0,1.3c0.3,1.6,0,1.8-1.3,0.9c-0.7-0.5-6.2,1-6.5,1.9c-0.6,1.7,0.5,3.1,1.1,4.5c0.5,1.1,1.6,1.6,2.6,1
		c1.2-0.6,1.6,0,2,0.9c3,5.6,5.7,11.3,7.5,17.4c-1.1,0.5-2.2-0.3-3.6-0.2c1,2,1.9,3.8,3,6c-3.7-1-7-2-10.4-2.9
		c-1.7-0.5-3.4-0.9-5.2-1.2c-3.5-0.7-6.6,0.8-7.9,4.2c-2.1,5.5-4.5,10.8-3.6,17.1c0.5,3-0.1,6.3-1.4,9.6c-0.3-1.5-0.4-2.5-0.7-3.4
		c-1.7-4.6-1.2-9,1-13.4c1.7-3.4,1.1-7.1,0.8-10.7c-0.1-1.1-0.8-2-1.5-2.9c-2-2.6-4.3-4.9-5.6-7.9c-0.2-0.5-0.5-1-1.1-0.9
		c-0.7,0.2-0.6,0.9-0.6,1.5c0,0.8,0.1,1.5,0.2,2.7c-1-0.9-1.5-1.5-1.2-2.5c0.3-1-0.2-1.8-1-2.3c-0.9-0.6-1.7,0-2.4,0.4
		c-0.9,0.5-1.1,1.4-0.8,2.3c0.4,1.2,0.7,2.4,0.8,3.7c0.1,1.8-1.2,3.4-2.8,3.3c-1.9-0.2-1.9-1.7-1.7-3c0.6-5.4-1.1-10.3-3.4-15.1
		c-1.2-2.5-0.6-5.5-0.8-8.3c-0.3-3.3-0.4-6.6,0.2-9.9c0.1-0.4,0.1-0.8,0-1.1c-0.2-0.5,0-1.4-0.8-1.4c-0.7-0.1-1.2,0.5-1.2,1.3
		c0,0.3,0,0.6-0.1,1.1C5,50.8,5,50.1,5,49.4c0.5-12.3,2.2-24.2,8.3-35.1C16.9,8,23.3,2.2,28.9,0c-1.6,3.2-3.4,6.2-4.6,9.4
		c-3.8,10.1-3.4,20.2-0.1,30.3c0.4,1.1,0.9,2.2,2.1,2.7c0.8-0.3,0.3-1.3,1.1-1.7c1,1,1.8,2.1,2.4,3.5C30.1,44.7,30.5,45,30.6,45.6z"
		/>
	<path id="XMLID_110_" class="st1" d="M70.6,103.5c0.8-6.6-0.5-13.4,1.7-20c2-5.6,4.7-10.9,8.1-15.9c-1,3.6-2.1,7.2-3.3,11.4
		c3-2.7,5.8-4.6,7.2-7.9c0.3-0.7,0.7-1.5,0.9-2.2c1.7-5.5,4.5-10.3,8.6-14.4c3.8-3.7,6-8.7,8.9-13.1c1.2,0,0.1,1.8,1.3,1.6
		c0.8-0.1,1.3-0.8,1.5-1.5c1.6-5.8,3.9-11.5,3.1-17.7c-0.5-3.2-1.3-3.9-3.8-2.2c-1.3,0.9-2,0.1-2.8-0.2c-0.9-0.4-0.5-1.4-0.3-2.2
		c0.3-1.7,0.8-3.3,0.8-5c0-0.4,0.2-0.8,0-1.1c-2.4-4.1,0.8-8.5-1.1-12.9c4.3,1.7,7.3,4.4,10.2,7.2c7.2,7,9.8,16.1,11.7,25.5
		c0.7,3.5,1.2,7,1.4,10.5c0.1,2.4,0.2,4.7-1.1,7.1c-0.9,1.5-0.6,3.6-0.4,5.4c0.7,6.2-0.3,12-3,17.6c-1,2.1-1.5,4.3-1.4,6.6
		c0.1,2.7-1.2,4.6-3.8,5.9c-0.3-1.6-0.6-3-0.8-4.4c-1.4,0.8-1.4,0.8-1.2,3c-1.5-1.2-1.5-2.8-1.6-4.4c-0.1-1.4-0.1-2-2.1-1.3
		c-3.9,1.3-6.1,4.3-8.5,7.1c-1.2,1.4-2.4,2.1-4.2,1.5c-0.9-0.3-1-0.1-1.5,0.8c-1.3,2.4-3.9,2.6-6.2,2.4c-1.8-0.2-3.1,0-4.1,1.6
		c-1.1,1.6-1.2-0.5-1.9-0.6c-0.9,0.5,0.1,1.7-0.9,2.3c-0.6-0.6-0.3-1.5-0.6-2.1c-0.7-1.7-1.5-2-2.9-0.8c-0.4,0.4-0.9,0.8-1.3,1.2
		c-0.6,0.7-1,0.9-1.8,0c-1.4-1.6-2.5-1.2-2.9,0.9c-0.5,2.6-0.7,5.3-1.1,7.9c-0.3,0.7,0,1.6-0.3,2.3c0,0.8-0.1,1.7-0.1,2.5
		C69.9,105.5,70.6,104.5,70.6,103.5z"/>
</g>
</svg>
