<?xml version="1.0" encoding="utf-8"?>
<!-- Generator: Adobe Illustrator 19.0.0, SVG Export Plug-In . SVG Version: 6.00 Build 0)  -->
<svg version="1.1" id="Camada_1" xmlns="http://www.w3.org/2000/svg" xmlns:xlink="http://www.w3.org/1999/xlink" x="0px" y="0px"
	 viewBox="0 0 25 50" style="enable-background:new 0 0 25 50;" xml:space="preserve">
<style type="text/css">
	.st0{fill:#FFFFFF;}
	.st1{fill:url(#XMLID_3_);}
</style>
<path id="XMLID_16_" class="st0" d="M23.3,35.7c-0.5,1.4-1.1,2.8-2,4c-0.3,0.5-0.3,0.5-0.9,0.2c-1-0.6-2.2-1-3.3-1.4
	c-0.2-0.1-0.3,0-0.3,0.2c-0.3,0.6-0.5,1.2-0.8,1.7c-0.4,0.8-0.9,1.2-1.8,1.1c-0.3,0-0.3-0.1-0.5-0.3c-0.3-0.3-0.2-0.4,0-0.6
	c0.4-0.4,0.8-0.8,1.2-1.2c0.1-0.1,0.2-0.2,0.2-0.3c0-2.5-0.2-5-0.9-7.4c-0.1-0.3-0.3-0.7-0.4-1c0-0.1-0.1-0.2-0.2-0.2
	c-0.2,0-0.1,0.2-0.1,0.3c0,0.6,0,0.6-0.6,0.6c-0.3,0-0.6,0-0.9,0c-0.3,0-0.3,0-0.3-0.3V31c0-0.2,0.1-0.3-0.1-0.4
	c-0.3-0.1-0.3,0.3-0.3,0.3c-0.6,1.5-0.9,3-1.1,4.6c-0.2,1-0.2,2.2-0.2,3.4c0,0.3,0.1,0.3,0.3,0.5c0.4,0.4,0.8,0.8,1.3,1.3
	c0.1,0.1,0.1,0.2,0,0.3c-0.2,0.3-0.5,0.3-0.8,0.3c-0.7,0-1.1-0.3-1.4-0.8C9,40,8.7,39.4,8.4,38.7c-0.2-0.2-0.3-0.3-0.4-0.2
	c-1.2,0.4-2.3,0.8-3.4,1.5c-0.3,0.2-0.4,0.1-0.6-0.1c-0.6-0.8-0.9-1.5-1.3-2.3c-0.3-0.6-0.5-1.2-0.8-1.8c-0.2,0.1-0.1,0.3-0.1,0.4
	C2,38.3,2.6,40,3.9,41.4c0.2,0.2,0.3,0.2,0.4,0c0.9-0.8,2-1.4,3.2-1.8c0.2-0.1,0.3,0,0.4,0.2c0.4,0.8,0.8,1.4,1.5,2
	c0.2,0.2,0.3,0.3,0.7,0.2c0.3-0.1,0.7,0,0.9-0.1c0.1,0.3-0.1,0.3-0.3,0.3c-0.4,0-0.8,0.1-1.2,0.2c-0.2,0.1-0.3,0-0.3-0.1
	c-0.7-0.5-1.2-1.1-1.7-1.8c-0.2-0.3-0.3-0.3-0.5-0.1c-1,0.6-1.9,1.3-2.8,2c-0.3,0.2-0.4,0.2-0.7,0.1C3.3,42.4,3,42,2.8,41.8
	c-0.8-0.9-1.4-2-2-3.1c-0.2,0-0.1,0.1-0.1,0.2c0.3,1.6,0.9,3.2,2,4.4C3,43.6,3.4,44,3.8,44.1c0.3,0.1,0.3,0.1,0.5-0.2
	c0.8-1,1.7-1.9,2.6-2.8C7.1,41,7.2,41,7.4,41.3c0.5,0.7,1,1.3,1.6,1.8c0.3,0.2,0.4,0.3,0.7,0.1c0.4-0.2,0.8-0.3,1.2-0.5
	c0.1,0.3,0,0.4-0.3,0.5c-0.3,0.2-0.7,0.3-1,0.4c-0.3,0.2-0.4,0.1-0.7,0c-0.6-0.3-1-0.8-1.4-1.3c-0.3-0.3-0.3-0.3-0.7-0.1
	C5.9,42.9,5,43.9,4.4,45c-0.1,0.2-0.2,0.2-0.3,0.1c-0.6-0.2-1.1-0.5-1.6-0.8c-0.8-0.7-1.7-1.5-2.3-2.3c-0.1-0.1-0.1-0.1-0.2-0.2
	c0,0.4,0.1,0.8,0.3,1c0.4,0.8,1,1.6,1.8,2.3c0.8,0.8,1.7,1.4,2.7,2c0.3-0.6,0.5-1.2,0.8-1.8c0.4-0.8,0.9-1.4,1.5-2.1
	c0.2-0.2,0.2-0.2,0.3,0c0.6,0.5,1.1,1,1.8,1.4c0.2,0.2,0.3,0.2,0.6,0c0.4-0.3,0.8-0.7,1.3-0.9c0.2,0.3,0.1,0.4-0.2,0.6
	c-0.4,0.3-0.8,0.6-1.2,1c-0.2,0.2-0.3,0.2-0.5,0.1c-0.6-0.2-1.1-0.6-1.5-1c-0.2-0.2-0.4-0.4-0.6-0.4s-0.3,0.3-0.4,0.6
	c-0.6,1.1-1.2,2.1-1.4,3.3C5.1,48,4.9,48,4.8,48c-0.7-0.2-1.3-0.4-1.8-0.8c-0.9-0.5-1.8-1.2-2.6-1.8c-0.1-0.1-0.2-0.2-0.3-0.3
	c0,0.3,0.2,0.6,0.3,0.8c0.5,0.8,1.2,1.3,1.9,1.9c1.1,0.8,2.3,1.4,3.4,2c0.2-0.8,0.3-1.7,0.5-2.4c0.3-0.8,0.5-1.4,0.8-2.1
	c0.1-0.3,0.2-0.3,0.4-0.1c0.6,0.5,1.3,0.9,2,1.3c0.2,0.1,0.3,0.1,0.4-0.2c0.3-0.7,0.8-1.2,1.3-1.7c0.1,0.2,0.3,0.3,0,0.5
	c-0.2,0.1-0.1,0.3,0,0.4c0.2,0.2,0.3,0.3,0.7,0.4c-0.1-0.2-0.2-0.3-0.2-0.4c0-0.1,0-0.2,0-0.2c0.1-0.1,0.1,0,0.2,0
	c0.4,0.3,0.8,0.3,1.3,0c0.2-0.1,0.3,0,0.2,0.2c-0.1,0.2-0.1,0.3-0.2,0.5c0.3-0.1,0.5-0.3,0.7-0.5c0.1-0.2,0.1-0.3-0.1-0.4
	c-0.3-0.2-0.1-0.3,0-0.3c0.1-0.2,0.2,0,0.3,0.1c0.5,0.5,0.9,1,1.2,1.6c0.1,0.2,0.2,0.2,0.3,0.1c0.8-0.3,1.4-0.8,2-1.3
	c0.3-0.2,0.3-0.1,0.4,0.1c0.7,1.3,1.1,2.6,1.3,4c0.1,0.6,0.1,0.7,0.7,0.3c1.4-0.8,2.8-1.6,4-2.7c0.6-0.6,0.9-1.2,1.1-1.8
	c-0.3,0.3-0.7,0.5-0.9,0.8c-0.9,0.8-1.8,1.3-2.9,1.8c-0.3,0.2-0.7,0.3-1,0.3c-0.2,0-0.3,0-0.3-0.2c-0.3-1.4-1-2.6-1.8-3.8
	c-0.1-0.2-0.2-0.1-0.3,0c-0.4,0.4-0.8,0.8-1.3,1.1c-0.2,0.1-0.3,0.2-0.4,0.3c-0.3,0.2-0.6,0.2-0.8-0.2s-0.7-0.6-1.1-0.8
	C14,44.5,14,44.3,14.1,44c0.4,0.3,0.9,0.7,1.3,1c0.2,0.1,0.3,0.2,0.4,0c0.7-0.4,1.3-0.9,1.8-1.4c0.2-0.2,0.3-0.2,0.4,0
	c0.9,1.1,1.7,2.2,2.2,3.5c0.1,0.2,0.1,0.3,0.3,0.1c1.5-1,2.9-2,3.9-3.6c0.3-0.4,0.5-0.9,0.6-1.4c-0.2,0-0.2,0.1-0.3,0.2
	c-0.8,0.9-1.7,1.8-2.7,2.6c-0.3,0.3-0.8,0.5-1.2,0.6c-0.2,0-0.3,0-0.3-0.2c-0.6-1.2-1.5-2.1-2.5-2.9c-0.2-0.1-0.2-0.1-0.3,0
	c-0.4,0.5-0.9,1-1.5,1.4c-0.3,0.2-0.6,0.3-0.9,0.1c-0.3-0.2-0.6-0.3-0.9-0.4c-0.1-0.5-0.2-0.6-0.1-0.9c0.4,0.2,0.8,0.3,1.2,0.5
	c0.3,0.1,0.4,0.1,0.6-0.1c0.6-0.5,1.2-1.1,1.6-1.8c0.2-0.3,0.3-0.2,0.4,0c1,0.8,1.8,1.8,2.6,2.8c0.2,0.2,0.3,0.3,0.5,0.1
	c0.8-0.4,1.4-1,1.9-1.8c0.7-1.1,1.1-2.3,1.3-3.5c0-0.1,0.1-0.2,0-0.3c-0.7,1.2-1.3,2.4-2.3,3.4c-0.3,0.3-0.5,0.4-0.8,0.6
	c-0.3,0.1-0.4,0.1-0.6-0.1c-0.8-0.7-1.6-1.3-2.5-1.9c-0.1-0.1-0.2-0.1-0.3-0.2c-0.3-0.2-0.3-0.1-0.5,0.1c-0.4,0.6-0.9,1.2-1.5,1.7
	c-0.3,0.2-0.4,0.3-0.8,0.2c-0.3-0.1-0.7-0.2-1-0.2c-0.2,0-0.3-0.1-0.3-0.3s0.2-0.1,0.3-0.1c0.2,0,0.4,0,0.6,0
	c0.3,0.1,0.7-0.1,0.9-0.3c0.6-0.5,1-1.2,1.3-1.8c0.2-0.3,0.3-0.3,0.5-0.2c1.1,0.4,2.2,1,3,1.8c0.2,0.2,0.3,0.1,0.4,0
	c1-1.1,1.6-2.4,1.9-3.9c0.1-0.5,0.2-1,0.2-1.5C23.4,35.9,23.5,35.8,23.3,35.7z"/>
<linearGradient id="XMLID_3_" gradientUnits="userSpaceOnUse" x1="12.5" y1="31.6667" x2="12.5" y2="-1.637090e-011">
	<stop  offset="0" style="stop-color:#FFFFFF"/>
	<stop  offset="0.7024" style="stop-color:#FFFFFF"/>
	<stop  offset="0.7586" style="stop-color:#FFFFFF"/>
	<stop  offset="0.9662" style="stop-color:#FFFFFF;stop-opacity:0.14"/>
	<stop  offset="1" style="stop-color:#FFFFFF;stop-opacity:0"/>
</linearGradient>
<rect id="XMLID_1_" x="12.1" class="st1" width="0.8" height="31.7"/>
</svg>
