<?xml version="1.0" encoding="utf-8"?>
<!-- Generator: Adobe Illustrator 19.0.0, SVG Export Plug-In . SVG Version: 6.00 Build 0)  -->
<svg version="1.1" id="Camada_1" xmlns="http://www.w3.org/2000/svg" xmlns:xlink="http://www.w3.org/1999/xlink" x="0px" y="0px"
	 viewBox="0 0 120 196" style="enable-background:new 0 0 120 196;" xml:space="preserve">
<style type="text/css">
	.st0{fill:#0D0F0F;}
	.st1{fill:#0D0F10;}
	.st2{fill:#0F1010;}
	.st3{fill:#0F1011;}
	.st4{fill:#101011;}
	.st5{fill:#111112;}
	.st6{fill:#111212;}
	.st7{fill:#121212;}
	.st8{fill:#121213;}
	.st9{fill:#141414;}
	.st10{fill:#131414;}
	.st11{fill:#181917;}
	.st12{fill:#A3A2A2;}
	.st13{fill:#484848;}
	.st14{fill:#262725;}
	.st15{fill:#5A5A5A;}
	.st16{fill:#666566;}
</style>
<g id="XMLID_1_">
	<path id="XMLID_111_" class="st0" d="M25.6,45.5c0.4,0.8,0.8,1.6,1.2,2.3c0.7,1.2,1,2.5,3.3,1.8c2.1-0.7,4.2,1,5.8,2.5
		c0.9,0.8,1.8,1.2,3,0.9c1.7-0.3,1.7-0.3,1.9,1.5c1-0.1,1-1.4,2.2-1.4c-0.2,1.5-2.1,3-0.3,4.4c1.3,1,3-0.5,4.6,0.1
		c0,0.4-0.1,0.8,0,1.3c0.3,1.6,0,1.8-1.3,0.9c-0.7-0.5-6.2,1-6.5,1.9c-0.6,1.6,0.5,3.1,1.1,4.5c0.5,1.1,1.6,1.6,2.6,1
		c1.2-0.6,1.6,0,2,0.9c3,5.6,5.7,11.3,7.5,17.4c-1.1,0.5-2.2-0.3-3.6-0.2c1,2,1.9,3.8,3,6c-3.7-1-7-2-10.4-2.9
		c-1.7-0.5-3.4-0.9-5.2-1.2c-3.5-0.7-6.6,0.8-7.9,4.2c-2.1,5.5-4.5,10.8-3.6,17c0.5,3-0.1,6.2-1.4,9.6c-0.3-1.5-0.4-2.5-0.7-3.4
		c-1.7-4.6-1.2-9,1-13.4c1.7-3.4,1.1-7.1,0.8-10.7c-0.1-1.1-0.8-2-1.5-2.9c-2-2.6-4.3-4.9-5.6-7.9c-0.2-0.5-0.5-1-1.1-0.9
		c-0.7,0.2-0.6,0.9-0.6,1.5c0,0.8,0.1,1.5,0.2,2.7c-1-0.9-1.5-1.5-1.2-2.5c0.3-1-0.2-1.8-1-2.3c-0.9-0.6-1.7,0-2.4,0.4
		c-0.9,0.5-1.1,1.3-0.8,2.3c0.4,1.2,0.7,2.4,0.8,3.7c0.1,1.8-1.2,3.4-2.8,3.3c-1.9-0.2-1.9-1.7-1.7-3c0.6-5.4-1.1-10.3-3.4-15.1
		c-1.2-2.5-0.6-5.5-0.8-8.3c-0.3-3.3-0.4-6.6,0.2-9.9c0.1-0.4,0.1-0.8,0-1.1c-0.2-0.5,0-1.4-0.8-1.4c-0.7-0.1-1.2,0.5-1.2,1.3
		c0,0.3,0,0.6-0.1,1.1C0,50.8,0,50,0,49.4c0.5-12.2,2.2-24.2,8.3-35.1C11.9,8,18.3,2.2,23.9,0c-1.6,3.2-3.4,6.2-4.6,9.4
		c-3.8,10.1-3.4,20.2-0.1,30.3c0.4,1.1,0.9,2.2,2.1,2.7c0.8-0.3,0.3-1.3,1.1-1.7c1,1,1.8,2.1,2.4,3.5C25.1,44.6,25.5,45,25.6,45.5z"
		/>
	<path id="XMLID_110_" class="st1" d="M65.6,103.4c0.8-6.6-0.5-13.4,1.7-19.9c2-5.6,4.7-10.9,8.1-15.9c-1,3.6-2.1,7.2-3.3,11.4
		c3-2.7,5.8-4.6,7.2-7.8c0.3-0.7,0.7-1.5,0.9-2.2c1.7-5.5,4.5-10.2,8.6-14.4c3.8-3.7,6-8.7,8.9-13.1c1.2,0,0.1,1.8,1.3,1.6
		c0.8-0.1,1.3-0.8,1.5-1.5c1.6-5.8,3.9-11.5,3.1-17.7c-0.5-3.2-1.3-3.9-3.8-2.2c-1.3,0.9-2,0.1-2.8-0.2c-0.9-0.4-0.5-1.4-0.3-2.2
		c0.3-1.7,0.8-3.3,0.8-5c0-0.4,0.2-0.8,0-1.1c-2.4-4.1,0.8-8.5-1.1-12.9c4.3,1.7,7.3,4.4,10.2,7.2c7.2,7,9.8,16.1,11.7,25.5
		c0.7,3.5,1.2,7,1.4,10.5c0.1,2.4,0.2,4.7-1.1,7.1c-0.9,1.5-0.6,3.6-0.4,5.4c0.7,6.2-0.3,12-3,17.6c-1,2.1-1.5,4.3-1.4,6.6
		c0.1,2.7-1.2,4.6-3.8,5.9c-0.3-1.6-0.6-3-0.8-4.4c-1.4,0.8-1.4,0.8-1.2,3c-1.5-1.2-1.5-2.8-1.6-4.4c-0.1-1.4-0.1-2-2.1-1.3
		c-3.9,1.3-6.1,4.3-8.5,7.1c-1.2,1.4-2.4,2.1-4.2,1.5c-0.9-0.3-1-0.1-1.5,0.8C89,91,86.4,91.2,84.1,91c-1.8-0.2-3.1,0-4.1,1.6
		c-1.1,1.6-1.2-0.5-1.9-0.5c-0.9,0.5,0.1,1.7-0.9,2.3c-0.6-0.6-0.3-1.5-0.6-2.1c-0.7-1.7-1.5-2-2.9-0.8c-0.4,0.4-0.9,0.8-1.3,1.2
		c-0.6,0.7-1,0.9-1.8,0c-1.4-1.6-2.5-1.2-2.9,0.9c-0.5,2.6-0.7,5.3-1.1,7.9c-0.3,0.7,0,1.6-0.3,2.3c0,0.8-0.1,1.7-0.1,2.5
		C64.9,105.4,65.6,104.4,65.6,103.4z"/>
	<path id="XMLID_105_" class="st2" d="M85.6,150.1c0.4,0.7,0.8,1.4,1.4,2.5c1.2-4.9,0.1-9.2-1.3-13.6c1.7,0.3,1.3,2.1,2.5,2.8
		c0-3.3,0-6.4,0-9.6c1-0.2,0.7,1,1.4,0.9c0.6-2.8,1-5.6,1-8.5c0-5.7,0-11.4,0-17c0-0.7,0.1-1.5,0.2-2.2c0.1-1,0.5-2.2,1.6-2
		c1.2,0.2,0.4,1.5,0.4,2.2c-0.1,4.6-0.2,9.3-0.3,13.9c0,0.5-0.2,1.1,0.5,1.3c0.7,0.1,1.2-0.4,1.4-0.9c0.4-1.3,0.5-2.7,0.5-4.2
		c-0.1-3.9-0.2-7.8-0.3-11.7c0-1.2,0-2.4,0.8-3.5c1.3,0.8,1.3,2.2,1.5,3.4c0.7,7.3-0.6,14.3-2.5,21.3c-0.7,2.8-1.7,5.5-2.6,8.2
		c-0.8,2.5-1.5,5.1-1.3,7.8c0.3,3.9-1.5,7.6-0.8,11.6c0.3,1.4,0.2,2.9,0.3,4.4c0.1,1.2,0,2.3-1.2,3.1c-1.2,0.8-0.7,2.1-0.4,3
		c0.6,2.1,0.2,4-0.7,5.8c-0.7,1.4-0.8,3.2-1.7,4.3c-2.5,3.3-1.9,8.1-5.3,11c-0.4,0.4-0.8,1-1.5,0.7c-0.5-0.2-0.8-0.7-0.8-1.2
		c0-4.7,0-9.3,0-14.3c1.1,0.8,0.9,1.9,1.8,2.8c0-3.4,0-6.6,0-9.8c0.2,0,0.3-0.1,0.5-0.1c0.5,1.2,1,2.3,1.6,3.7
		c1.3-2.1,0.9-4.1,1-6.1c0.1-1.1-0.3-2.4,0.5-3.4c0,0,0.1,0,0.2,0c0.1,0.1,0.1,0.3,0.2,0.4c1,0.3,0.6-0.5,0.6-0.8c0-1.7,0-3.5,0-5.2
		C85,150.7,84.7,149.9,85.6,150.1z"/>
	<path id="XMLID_104_" class="st2" d="M39.3,105.8c2.2,2.4,2.8,5.4,4.1,8.3c0.7-1.7,1.4-3.1,1.9-4.4c0.5-1.3,1.3-1.3,2.1-0.3
		c2.9,3.6,4.6,7.5,3,12.2c-0.3,0.8-1.3,1.8,0.1,2.6c0.1,0.1,0.1,0.5,0,0.6c-2.7,3.4-0.9,7.2-1.1,10.8c-0.2,3.7,0,7.5,0,10.9
		c-3.1-7.8-3-17.2-8.2-24.6c-0.2,0-0.5,0.1-0.7,0.1c0,3.8,0,7.5,0,11.4C35.9,130.8,35.2,112.8,39.3,105.8z"/>
	<path id="XMLID_103_" class="st2" d="M56.3,161.2c0.2,3.2-0.2,6.4,0.5,9.6c0.6,2.7,1.7,5,4,6.6c0.9,0.7,1.5,0.8,1.8-0.6
		c0.2-1,0.6-1.9,1-3.1c1,0.9,0.7,2,0.9,2.9c1.2,5.2,1.4,10.5,1.1,15.8c0,0.2,0,0.5-0.1,0.7c-0.5,1.2-0.4,3-2,3
		c-1.5,0-1.1-1.8-1.4-2.9c-0.5-2-0.8-4-0.7-6.1c0-0.7,0-1.3-0.4-1.9c-0.4-0.6-0.9-1.1-1.6-0.9c-0.9,0.2-0.7,1-0.6,1.6
		c0.6,3-1.2,5.7-0.9,8.8c0.2,1.4-1.3,1.4-2.3,0.6c-1.5-1.1-2.3-2.8-2.3-4.6c0.3-9.2,0.3-18.4,1.7-27.5c0.1-0.7,0.4-1.3,0.7-2
		C55.9,161.1,56.1,161.1,56.3,161.2z"/>
	<path id="XMLID_102_" class="st3" d="M28.2,132.9c0,4.4,0,8.7,0,13.4c1.4-0.9,1.2-2.4,2.3-3.5c0,3.4,0,6.5,0,9.6
		c0.2,0.1,0.3,0.1,0.5,0.2c0.5-0.7,1-1.4,1.5-2c0.2,0.1,0.4,0.2,0.6,0.3c-0.2,2.1-0.5,4.2-0.6,6.4c0,0.6-0.9,1.7,0.8,1.5
		c0.4,0,0.2,0.7,0.2,1.1c-0.1,4.7-0.1,9.4-1.1,14.1c-0.5,2.2-0.5,4.5-0.2,6.8c0.3,1.7,0.1,3.5,0.2,5.3c0,0.6-0.2,1.1-0.8,1.1
		c-0.5,0-0.6-0.6-0.6-1.1c0-1.6,0.1-3.2,0.1-4.9c0.1-2.6,0.8-5.2-0.6-7.7c-0.3-0.6-0.2-1.4-0.2-2.2c0.1-1.4,0.5-2.8-1-3.8
		c-0.2-0.1-0.3-0.5-0.3-0.8c0-3.8-2.3-7.3-1.9-11.2c0.1-0.9,0-1.7-0.9-2.3c-0.6-0.4-0.6-1.3-0.7-2c-0.5-2.2,0.2-4.6-1.1-6.7
		c-0.1-0.2-0.1-0.5,0-0.6C26.9,140.6,26.2,136.4,28.2,132.9z"/>
	<path id="XMLID_101_" class="st3" d="M65.7,108.6c0.2,3.4,1.4,6.6,1.8,10c0.9,8.3-0.3,16.3-2.4,24.2c-0.8,2.9-1.1,5.8-0.4,8.7
		c0,0.2,0.1,0.5,0.1,0.7c-0.2,0.8-0.3,2.2-1.1,2.1c-1-0.1-0.7-1.4-0.6-2.2c1.3-7.6,0.6-15.1-0.8-22.6c-1-5.6-1.3-10.9,1.5-16.1
		c1-1.8,1.6-3.8,1.6-5.9C66.2,107.6,65.8,108.1,65.7,108.6z"/>
	<path id="XMLID_100_" class="st3" d="M69.6,145.5c0.3-4.6,0.7-9.3,0.8-13.9c0.1-3.1-0.3-6.2-1.3-9.1c-0.6-1.8-0.4-3.4,0.5-5.1
		c0.9-1.8,1.6-3.6,2.4-5.4c0.3-0.7,0.8-1.5,1.8-1.4c0.9,0.2,1,1.1,1,1.8c0.5,8.3,1.9,16.7-1.4,24.9c-1.4,3.5-2.2,7.3-3.3,11
		C68.8,147.5,69.6,146.4,69.6,145.5z"/>
	<path id="XMLID_99_" class="st3" d="M55.3,144c-1.4-4-2.2-7.8-2.7-11.7c-1.1-7.4-0.9-14.8,1.2-22.1c0.2-0.6-0.1-1.7,1-1.6
		c1,0.1,1.5,0.8,1.5,1.8c0.1,1.9,0.7,3.6,1.4,5.3c1.2,2.9,1.2,5.9,0.3,8.9c-1.5,5.2-2.2,10.5-2.1,15.9
		C55.9,141.6,55.7,142.7,55.3,144z"/>
	<path id="XMLID_98_" class="st4" d="M80.6,106.9c4.5,9.6,2.2,18.8-0.9,27.9c-0.2,0-0.5,0-0.7,0c0-2.5,0-5,0-7.5
		c0.1-2.3-0.4-4.5-1.3-6.6C75.6,116.2,76.8,110.8,80.6,106.9z"/>
	<path id="XMLID_97_" class="st5" d="M70.1,165.9c2.5,8.7,2.5,17.5,1.3,26.4c-0.1,0.8-0.3,1.7-1.3,1.8c-0.9,0.1-1-0.9-1.3-1.5
		c-1.2-3.1-0.8-6.2-0.5-9.4C68.9,177.4,69.5,171.7,70.1,165.9z"/>
	<path id="XMLID_96_" class="st6" d="M43.3,160.3c0.7,3.7,0.6,7.1,0.8,10.4c0.4,5.8,1.1,11.6,1.6,17.4c0.1,1.3,0.6,3.4-0.9,3.7
		c-1.6,0.2-1.5-2-1.9-3.3c-2-7-1.2-14-0.6-21C42.5,165.2,42.5,162.9,43.3,160.3z"/>
	<path id="XMLID_95_" class="st7" d="M37.9,161.3c0.2,4,0.4,8,0.5,12.1c0.9-0.1,0.7-1.1,1.5-1.2c0,4.6,0,9.2,0,14.1
		c-1.8-1.5-1.8-1.5-2.4-7.6c-0.7,0.7-1.3,1.3-1.9,2c-0.7-0.4-0.4-1.1-0.3-1.5c0.2-2-0.6-3.9-0.8-5.8c-0.4-4.2,3-7.7,2.7-12
		C37.5,161.2,37.7,161.2,37.9,161.3z"/>
	<path id="XMLID_94_" class="st5" d="M33.1,129.5c-2.1-8.1-3.2-16.2-1.5-25.1c2.3,3,2.3,5.9,2.7,8.8c0.4,2.9-1,5.9,0.8,8.6
		C32.7,123.9,34.3,127,33.1,129.5z"/>
	<path id="XMLID_93_" class="st8" d="M85.3,127.4c-0.4-5.9-0.9-11.9,0-17.8c0.3-2,0.6-4.1,2.5-5.9c1.3,8.3,0.1,16-1.7,23.7
		C85.8,127.7,85.5,127.7,85.3,127.4z"/>
	<path id="XMLID_92_" class="st6" d="M48.5,173.7c1.4,5.7,2.3,11.4,3.2,17c0.2,1.4,0.2,2.6-0.7,3.7
		C47.7,192.2,45.2,180.5,48.5,173.7z"/>
	<path id="XMLID_91_" class="st9" d="M28.1,125.9c-2.1-7-2.7-14.1-0.2-21.2C29.3,111.8,28.6,118.8,28.1,125.9z"/>
	<path id="XMLID_90_" class="st10" d="M75.9,174.7c2.4,5.5,0.1,10.4-0.6,15.4c-0.1,0.7-0.6,1.6-1.4,1.4c-0.7-0.2-0.9-1-0.9-1.8
		c0-3.5,1.1-6.8,1.7-10.2C75,178,75.5,176.5,75.9,174.7z"/>
	<path id="XMLID_89_" class="st11" d="M17,97.4c0,5.2,0,10.5,0,15.9C13.7,109.7,13.8,99.2,17,97.4z"/>
	<path id="XMLID_88_" class="st10" d="M20.2,117.7c-2-6.4-2.5-12.1,0.2-17.8C21.2,105.6,21,111.3,20.2,117.7z"/>
	<path id="XMLID_84_" class="st12" d="M85.6,150.1c-0.9,1.9-0.2,3.8-0.4,5.8c-0.1,0.9,0,1.7,0,3c-0.7-0.7-1-1.1-0.9-1.7
		c0.9-2,0.2-4.2,0.4-6.3C84.8,150.4,84.4,149.3,85.6,150.1z"/>
	<path id="XMLID_82_" class="st13" d="M25.6,45.5c-0.5-0.3-0.9-0.7-0.8-1.4c0.7,0.8,1.5-0.2,2.2,0c0.9,0.3,1.1,1,1.3,2.1
		C27.4,45.5,26.7,44.3,25.6,45.5z"/>
	<path id="XMLID_80_" class="st14" d="M65.7,108.6c-0.2-0.3-0.3-0.7-0.5-1c0-1.4-0.3-2.8,0.3-4.1c0.3,0.9-0.3,1.9,0.4,2.7
		C66.1,107,66.3,107.8,65.7,108.6z"/>
	<path id="XMLID_77_" class="st15" d="M69.6,145.5c0.5,0.8-0.3,1.9,0.5,2.7c0,0.3,0,0.6-0.3,0.7c-0.4,0.1-0.5-0.1-0.5-0.5
		C69.3,147.5,69.1,146.4,69.6,145.5z"/>
	<path id="XMLID_75_" class="st16" d="M85.3,127.4c0.3,0,0.5,0,0.8,0c0.1,0.5,0,1.1-0.6,1.1C85.1,128.4,85.2,127.8,85.3,127.4z"/>
	<path id="XMLID_73_" class="st14" d="M66.2,103.6c-0.1-0.8-0.3-1.6,0.3-2.3C66.5,102.1,66.7,102.9,66.2,103.6z"/>
</g>
</svg>
