<?xml version="1.0" encoding="utf-8"?>
<!-- Generator: Adobe Illustrator 19.0.0, SVG Export Plug-In . SVG Version: 6.00 Build 0)  -->
<svg version="1.1" id="Camada_1" xmlns="http://www.w3.org/2000/svg" xmlns:xlink="http://www.w3.org/1999/xlink" x="0px" y="0px"
	 viewBox="52 -34 130 118" style="enable-background:new 52 -34 130 118;" xml:space="preserve">
<style type="text/css">
	.st0{fill:#D90405;}
</style>
<path id="XMLID_4_" class="st0" d="M79.8,20.6c0.4,0.7,0.9,1.4,1.3,2c0.8,1.1,1.1,2.2,3.6,1.6c2.3-0.6,4.6,0.9,6.3,2.2
	c1,0.7,2,1.1,3.3,0.8c1.8-0.3,1.8-0.3,2.1,1.3c1.1-0.1,1.1-1.2,2.4-1.2c-0.2,1.3-2.3,2.6-0.3,3.9c1.4,0.9,3.3-0.4,5,0.1
	c0,0.4-0.1,0.7,0,1.1c0.3,1.4,0,1.6-1.4,0.8c-0.8-0.4-6.7,0.9-7.1,1.7c-0.7,1.4,0.5,2.7,1.2,3.9c0.5,1,1.7,1.4,2.8,0.9
	c1.3-0.5,1.7,0,2.2,0.8c3.3,4.9,6.2,9.9,8.1,15.2c-1.2,0.4-2.4-0.3-3.9-0.2c1.1,1.8,2.1,3.3,3.3,5.3c-4-0.9-7.6-1.8-11.3-2.5
	c-1.8-0.4-3.7-0.8-5.6-1.1c-3.8-0.6-7.2,0.7-8.6,3.7c-2.3,4.8-4.9,9.5-3.9,14.9c0.5,2.6-0.1,5.4-1.5,8.4c-0.3-1.3-0.4-2.2-0.8-3
	c-1.8-4-1.3-7.9,1.1-11.7c1.8-3,1.2-6.2,0.9-9.4c-0.1-1-0.9-1.8-1.6-2.5c-2.2-2.3-4.7-4.3-6.1-6.9c-0.2-0.4-0.5-0.9-1.2-0.8
	c-0.8,0.2-0.7,0.8-0.7,1.3c0,0.7,0.1,1.3,0.2,2.4c-1.1-0.8-1.6-1.3-1.3-2.2s-0.2-1.6-1.1-2c-1-0.5-1.8,0-2.6,0.4
	c-1,0.4-1.2,1.1-0.9,2c0.4,1.1,0.8,2.1,0.9,3.2c0.1,1.6-1.3,3-3,2.9c-2.1-0.2-2.1-1.5-1.8-2.6c0.7-4.7-1.2-9-3.7-13.2
	c-1.3-2.2-0.7-4.8-0.9-7.3c-0.3-2.9-0.4-5.8,0.2-8.7c0.1-0.4,0.1-0.7,0-1c-0.2-0.4,0-1.2-0.9-1.2c-0.8-0.1-1.3,0.4-1.3,1.1
	c0,0.3,0,0.5-0.1,1c-1-0.6-1-1.3-1-1.8c0.5-10.7,2.4-21.2,9-30.7c3.9-5.5,10.9-10.6,16.9-12.5c-1.7,2.8-3.7,5.4-5,8.2
	c-4.1,8.8-3.7,17.7-0.1,26.5c0.4,1,1,1.9,2.3,2.4c0.9-0.3,0.3-1.1,1.2-1.5c1.1,0.9,2,1.8,2.6,3.1C79.2,19.8,79.7,20.1,79.8,20.6z"/>
<path id="XMLID_3_" class="st0" d="M123.2,71.2c0.9-5.8-0.5-11.7,1.8-17.4c2.2-4.9,5.1-9.5,8.8-13.9c-1.1,3.2-2.3,6.3-3.6,10
	c3.3-2.4,6.3-4,7.8-6.8c0.3-0.6,0.8-1.3,1-1.9c1.8-4.8,4.9-8.9,9.3-12.6c4.1-3.2,6.5-7.6,9.7-11.5c1.3,0,0.1,1.6,1.4,1.4
	c0.9-0.1,1.4-0.7,1.6-1.3c1.7-5.1,4.2-10.1,3.4-15.5c-0.5-2.8-1.4-3.4-4.1-1.9c-1.4,0.8-2.2,0.1-3-0.2c-1-0.4-0.5-1.2-0.3-1.9
	c0.3-1.5,0.9-2.9,0.9-4.4c0-0.4,0.2-0.7,0-1c-2.6-3.6,0.9-7.4-1.2-11.3c4.7,1.5,7.9,3.9,11.1,6.3c7.8,6.1,10.6,14.1,12.7,22.3
	c0.8,3.1,1.3,6.1,1.5,9.2c0.1,2.1,0.2,4.1-1.2,6.2c-1,1.3-0.7,3.2-0.4,4.7c0.8,5.4-0.3,10.5-3.3,15.4c-1.1,1.8-1.6,3.8-1.5,5.8
	c0.1,2.4-1.3,4-4.1,5.2c-0.3-1.4-0.7-2.6-0.9-3.9c-1.5,0.7-1.5,0.7-1.3,2.6c-1.6-1.1-1.6-2.5-1.7-3.9c-0.1-1.2-0.1-1.8-2.3-1.1
	c-4.2,1.1-6.6,3.8-9.2,6.2c-1.3,1.2-2.6,1.8-4.6,1.3c-1-0.3-1.1-0.1-1.6,0.7c-1.2,2.3-4,2.5-6.5,2.3c-2-0.2-3.4,0-4.5,1.4
	c-1.2,1.4-1.3-0.4-2.1-0.4c-1,0.4,0.1,1.5-1,2c-0.7-0.5-0.3-1.3-0.7-1.8c-0.8-1.5-1.6-1.8-3.1-0.7c-0.4,0.4-1,0.7-1.4,1.1
	c-0.7,0.6-1.1,0.8-2,0c-1.5-1.4-2.7-1.1-3.1,0.8c-0.5,2.3-0.8,4.6-1.2,6.9c-0.3,0.6,0,1.4-0.3,2c0,0.7-0.1,1.5-0.1,2.2
	C122.5,73,123.2,72.1,123.2,71.2z"/>
</svg>
